<svg width="38" height="38" fill="none" xmlns="http://www.w3.org/2000/svg"><path fill-rule="evenodd" clip-rule="evenodd" d="M19 38a19 19 0 1 0 0-38 19 19 0 0 0 0 38Z" fill="#3DDC84"/><path fill-rule="evenodd" clip-rule="evenodd" d="M24.87 22c-.36 0-.69.2-.9.5a5.86 5.86 0 0 1-4.79 2.5 5.94 5.94 0 0 1-5.88-6c0-3.36 2.68-6 5.88-6 1.96 0 3.72.98 4.8 2.5.2.3.53.5.89.5h3.47c.66 0 1.14-.63.89-1.25A10.89 10.89 0 0 0 19.18 8 10.94 10.94 0 0 0 8.3 19c0 6.08 4.87 11 10.88 11 4.53 0 8.4-2.79 10.05-6.75.25-.62-.23-1.25-.89-1.25h-3.47Z" fill="#fff"/></svg>